<svg width="234" height="17" viewBox="0 0 234 17" fill="none" xmlns="http://www.w3.org/2000/svg">
<path d="M6.104 6.76C6.392 6.76 6.6 6.696 6.728 6.568C6.856 6.44 7.056 6.168 7.328 5.752L10.256 1.288C10.352 1.128 10.456 1.024 10.568 0.975999C10.696 0.911999 10.824 0.879999 10.952 0.879999H11.36C11.584 0.879999 11.744 0.943999 11.84 1.072C11.952 1.184 12.008 1.368 12.008 1.624V13.84H11.768V1.624C11.768 1.496 11.736 1.384 11.672 1.288C11.624 1.176 11.52 1.12 11.36 1.12H11C10.888 1.12 10.792 1.136 10.712 1.168C10.632 1.2 10.544 1.296 10.448 1.456L7.52 5.872C7.232 6.304 7.008 6.6 6.848 6.76C6.704 6.92 6.456 7 6.104 7C5.752 7 5.496 6.92 5.336 6.76C5.192 6.6 4.976 6.304 4.688 5.872L1.76 1.456C1.664 1.296 1.568 1.2 1.472 1.168C1.392 1.136 1.296 1.12 1.184 1.12H0.824C0.664 1.12 0.56 1.176 0.512 1.288C0.464 1.384 0.44 1.496 0.44 1.624V13.84H0.2V1.624C0.2 1.368 0.248 1.184 0.344 1.072C0.456 0.943999 0.616 0.879999 0.824 0.879999H1.232C1.36 0.879999 1.488 0.911999 1.616 0.975999C1.744 1.024 1.856 1.128 1.952 1.288L4.88 5.752C5.152 6.168 5.352 6.44 5.48 6.568C5.608 6.696 5.816 6.76 6.104 6.76ZM27.4312 13.84H19.7992V13.6H23.5192V1.12H19.7992V0.879999H27.4312V1.12H23.7592V13.6H27.4312V13.84ZM35.7224 1.072L44.5544 11.008V0.879999H44.7944V13.84H44.5544V11.368L35.4824 1.192C35.4664 1.176 35.4424 1.16 35.4104 1.144C35.3944 1.128 35.3784 1.12 35.3624 1.12C35.3464 1.12 35.3304 1.128 35.3144 1.144C35.3144 1.16 35.3144 1.176 35.3144 1.192V13.84H35.0744V1.144C35.0744 1.048 35.1064 0.976 35.1704 0.927999C35.2344 0.879999 35.2984 0.855999 35.3624 0.855999C35.4264 0.855999 35.4824 0.871999 35.5304 0.904C35.5784 0.935999 35.6424 0.991999 35.7224 1.072ZM53.2168 13.84V0.879999H53.4568V7.24H62.6728V0.879999H62.9128V13.84H62.6728V7.48H53.4568V13.84H53.2168ZM71.2597 8.728V9.472H80.6197V8.728C80.6197 8.296 80.5797 7.896 80.4997 7.528C80.4357 7.16 80.3477 6.816 80.2357 6.496L78.5797 2.584C78.4037 2.168 78.2197 1.824 78.0277 1.552C77.8357 1.264 77.5157 1.12 77.0677 1.12H74.7157C74.2357 1.12 73.8997 1.264 73.7077 1.552C73.5157 1.824 73.3397 2.16 73.1797 2.56L71.6437 6.496C71.5317 6.816 71.4357 7.16 71.3557 7.528C71.2917 7.896 71.2597 8.296 71.2597 8.728ZM80.6197 13.84V9.712H71.2597V13.84H71.0197V8.728C71.0197 8.28 71.0517 7.872 71.1157 7.504C71.1957 7.12 71.2997 6.752 71.4277 6.4L72.9637 2.464C73.1397 2.016 73.3397 1.64 73.5637 1.336C73.7877 1.032 74.1717 0.879999 74.7157 0.879999H77.0677C77.5957 0.879999 77.9637 1.032 78.1717 1.336C78.3957 1.64 78.6037 2.024 78.7957 2.488L80.4517 6.4C80.5797 6.752 80.6757 7.12 80.7397 7.504C80.8197 7.872 80.8597 8.28 80.8597 8.728V13.84H80.6197ZM96.3269 0.879999V1.12H90.9989C90.3269 1.12 89.7909 1.304 89.3909 1.672C88.9909 2.04 88.7909 2.504 88.7909 3.064V5.032C88.7909 5.592 88.9029 5.984 89.1269 6.208C89.3509 6.432 89.6469 6.576 90.0149 6.64L95.0789 7.672C95.5589 7.768 95.9509 7.976 96.2549 8.296C96.5749 8.616 96.7349 9.192 96.7349 10.024V11.416C96.7349 12.12 96.4949 12.704 96.0149 13.168C95.5349 13.616 94.8869 13.84 94.0709 13.84H88.0949V13.6H94.0709C94.8069 13.6 95.3909 13.4 95.8229 13C96.2709 12.584 96.4949 12.056 96.4949 11.416V10.024C96.4949 9.272 96.3589 8.76 96.0869 8.488C95.8309 8.2 95.4789 8.008 95.0309 7.912L89.9669 6.88C89.5509 6.8 89.2069 6.64 88.9349 6.4C88.6789 6.144 88.5509 5.688 88.5509 5.032V3.064C88.5509 2.424 88.7749 1.904 89.2229 1.504C89.6709 1.088 90.2629 0.879999 90.9989 0.879999H96.3269ZM109.983 13.84V0.879999H117.639V1.12H110.223V7.984H115.695V8.224H110.223V13.84H109.983ZM131.611 13.84H123.979V13.6H127.699V1.12H123.979V0.879999H131.611V1.12H127.939V13.6H131.611V13.84ZM139.902 1.072L148.734 11.008V0.879999H148.974V13.84H148.734V11.368L139.662 1.192C139.646 1.176 139.622 1.16 139.59 1.144C139.574 1.128 139.558 1.12 139.542 1.12C139.526 1.12 139.51 1.128 139.494 1.144C139.494 1.16 139.494 1.176 139.494 1.192V13.84H139.254V1.144C139.254 1.048 139.286 0.976 139.35 0.927999C139.414 0.879999 139.478 0.855999 139.542 0.855999C139.606 0.855999 139.662 0.871999 139.71 0.904C139.758 0.935999 139.822 0.991999 139.902 1.072ZM157.228 8.728V9.472H166.588V8.728C166.588 8.296 166.548 7.896 166.468 7.528C166.404 7.16 166.316 6.816 166.204 6.496L164.548 2.584C164.372 2.168 164.188 1.824 163.996 1.552C163.804 1.264 163.484 1.12 163.036 1.12H160.684C160.204 1.12 159.868 1.264 159.676 1.552C159.484 1.824 159.308 2.16 159.148 2.56L157.612 6.496C157.5 6.816 157.404 7.16 157.324 7.528C157.26 7.896 157.228 8.296 157.228 8.728ZM166.588 13.84V9.712H157.228V13.84H156.988V8.728C156.988 8.28 157.02 7.872 157.084 7.504C157.164 7.12 157.268 6.752 157.396 6.4L158.932 2.464C159.108 2.016 159.308 1.64 159.532 1.336C159.756 1.032 160.14 0.879999 160.684 0.879999H163.036C163.564 0.879999 163.932 1.032 164.14 1.336C164.364 1.64 164.572 2.024 164.764 2.488L166.42 6.4C166.548 6.752 166.644 7.12 166.708 7.504C166.788 7.872 166.828 8.28 166.828 8.728V13.84H166.588ZM175.504 1.072L184.336 11.008V0.879999H184.576V13.84H184.336V11.368L175.264 1.192C175.248 1.176 175.224 1.16 175.192 1.144C175.176 1.128 175.16 1.12 175.144 1.12C175.128 1.12 175.112 1.128 175.096 1.144C175.096 1.16 175.096 1.176 175.096 1.192V13.84H174.856V1.144C174.856 1.048 174.888 0.976 174.952 0.927999C175.016 0.879999 175.08 0.855999 175.144 0.855999C175.208 0.855999 175.264 0.871999 175.312 0.904C175.36 0.935999 175.424 0.991999 175.504 1.072ZM200.582 13.84H198.47L197.366 16.864H197.126L198.206 13.84H196.574C195.022 13.84 193.99 13.6 193.478 13.12C192.982 12.64 192.734 11.848 192.734 10.744V4.024C192.734 2.888 192.99 2.08 193.502 1.6C194.014 1.12 195.038 0.879999 196.574 0.879999H200.582V1.12H196.574C195.166 1.12 194.214 1.344 193.718 1.792C193.222 2.224 192.974 2.968 192.974 4.024V10.744C192.974 11.784 193.214 12.52 193.694 12.952C194.174 13.384 195.134 13.6 196.574 13.6H200.582V13.84ZM207.9 8.728V9.472H217.26V8.728C217.26 8.296 217.22 7.896 217.14 7.528C217.076 7.16 216.988 6.816 216.876 6.496L215.22 2.584C215.044 2.168 214.86 1.824 214.668 1.552C214.476 1.264 214.156 1.12 213.708 1.12H211.356C210.876 1.12 210.54 1.264 210.348 1.552C210.156 1.824 209.98 2.16 209.82 2.56L208.284 6.496C208.172 6.816 208.076 7.16 207.996 7.528C207.932 7.896 207.9 8.296 207.9 8.728ZM217.26 13.84V9.712H207.9V13.84H207.66V8.728C207.66 8.28 207.692 7.872 207.756 7.504C207.836 7.12 207.94 6.752 208.068 6.4L209.604 2.464C209.78 2.016 209.98 1.64 210.204 1.336C210.428 1.032 210.812 0.879999 211.356 0.879999H213.708C214.236 0.879999 214.604 1.032 214.812 1.336C215.036 1.64 215.244 2.024 215.436 2.488L217.092 6.4C217.22 6.752 217.316 7.12 217.38 7.504C217.46 7.872 217.5 8.28 217.5 8.728V13.84H217.26ZM232.968 0.879999V1.12H227.64C226.968 1.12 226.432 1.304 226.032 1.672C225.632 2.04 225.432 2.504 225.432 3.064V5.032C225.432 5.592 225.544 5.984 225.768 6.208C225.992 6.432 226.288 6.576 226.656 6.64L231.72 7.672C232.2 7.768 232.592 7.976 232.896 8.296C233.216 8.616 233.376 9.192 233.376 10.024V11.416C233.376 12.12 233.136 12.704 232.656 13.168C232.176 13.616 231.528 13.84 230.712 13.84H224.736V13.6H230.712C231.448 13.6 232.032 13.4 232.464 13C232.912 12.584 233.136 12.056 233.136 11.416V10.024C233.136 9.272 233 8.76 232.728 8.488C232.472 8.2 232.12 8.008 231.672 7.912L226.608 6.88C226.192 6.8 225.848 6.64 225.576 6.4C225.32 6.144 225.192 5.688 225.192 5.032V3.064C225.192 2.424 225.416 1.904 225.864 1.504C226.312 1.088 226.904 0.879999 227.64 0.879999H232.968Z" fill="black"/>
</svg>
