<svg width="48" height="43" viewBox="0 0 48 43" fill="none" xmlns="http://www.w3.org/2000/svg">
<path d="M33.3333 8.0625V8.12129C32.8917 8.0877 32.45 8.0625 32 8.0625H21.3333C19.9583 8.0625 18.625 8.23887 17.35 8.56641C17.3417 8.39844 17.3333 8.23047 17.3333 8.0625C17.3333 3.61133 20.9167 0 25.3333 0C29.75 0 33.3333 3.61133 33.3333 8.0625ZM32 10.75C32.2917 10.75 32.5833 10.7584 32.8667 10.7752C33.2167 10.8004 33.5667 10.834 33.9167 10.8844C35.3833 9.1627 37.5667 8.0625 40 8.0625H40.9583C41.825 8.0625 42.4583 8.88555 42.25 9.73379L41.1 14.3697C42.4167 15.6127 43.4917 17.1244 44.225 18.8125H45.3333C46.8083 18.8125 48 20.0135 48 21.5V29.5625C48 31.049 46.8083 32.25 45.3333 32.25H42.6667C41.9083 33.2662 41.0083 34.1732 40 34.9375V40.3125C40 41.799 38.8083 43 37.3333 43H34.6667C33.1917 43 32 41.799 32 40.3125V37.625H21.3333V40.3125C21.3333 41.799 20.1417 43 18.6667 43H16C14.525 43 13.3333 41.799 13.3333 40.3125V34.9375C10.425 32.7371 8.44167 29.3693 8.06667 25.5312H5.66667C2.53333 25.5312 0 22.9781 0 19.8203C0 16.6625 2.53333 14.1094 5.66667 14.1094H6C7.10833 14.1094 8 15.008 8 16.125C8 17.242 7.10833 18.1406 6 18.1406H5.66667C4.75 18.1406 4 18.8965 4 19.8203C4 20.7441 4.75 21.5 5.66667 21.5H8.26667C9.275 16.4777 13.075 12.4717 17.9583 11.1867C19.0333 10.9012 20.1667 10.75 21.3333 10.75H32ZM37.3333 22.1719C37.3333 21.6373 37.1226 21.1246 36.7475 20.7466C36.3725 20.3686 35.8638 20.1562 35.3333 20.1562C34.8029 20.1562 34.2942 20.3686 33.9191 20.7466C33.544 21.1246 33.3333 21.6373 33.3333 22.1719C33.3333 22.7065 33.544 23.2191 33.9191 23.5971C34.2942 23.9751 34.8029 24.1875 35.3333 24.1875C35.8638 24.1875 36.3725 23.9751 36.7475 23.5971C37.1226 23.2191 37.3333 22.7065 37.3333 22.1719Z" fill="#1E3050"/>
</svg>
